<?xml version="1.0" encoding="utf-8" ?>
<svg baseProfile="full" height="644" version="1.1" viewBox="0 0 1024 644" width="1024" xmlns="http://www.w3.org/2000/svg">
  <defs>
    <linearGradient id="cyanStatic" x1="0%" y1="0%" x2="100%" y2="0%">
      <stop offset="0%" stop-color="#44ffff" />
      <stop offset="50%" stop-color="#00d1ff" />
      <stop offset="100%" stop-color="#44ffff" />
    </linearGradient>
    <filter id="blur" x="-10%" y="-10%" width="120%" height="120%">
      <feGaussianBlur stdDeviation="1.2" />
    </filter>
  </defs>
  <g filter="url(#blur)" fill="url(#cyanStatic)" fill-rule="evenodd" stroke="none">
    <path d="M 693.00,87.50 682.00,85.50 675.50,80.00 672.50,72.00 673.50,63.00 676.50,56.00 686.00,47.50 694.00,44.50 705.00,44.50 710.00,46.50 716.50,55.00 716.50,68.00 713.50,75.00 708.00,81.50 704.00,84.50 693.00,87.50 Z M 863.00,288.50 851.00,288.50 843.00,286.50 835.00,282.50 827.50,275.00 822.50,265.00 823.50,247.00 826.50,241.00 835.00,231.50 843.00,226.50 852.00,225.50 854.50,228.00 854.50,231.00 849.50,242.00 850.50,251.00 855.00,255.50 864.00,255.50 871.00,251.50 879.50,242.00 888.50,226.00 902.50,184.00 885.00,201.50 870.00,208.50 858.00,208.50 850.00,205.50 841.50,196.00 840.50,189.00 838.00,185.50 837.50,189.00 830.50,198.00 815.00,211.50 807.00,215.50 798.00,217.50 790.00,217.50 782.00,214.50 775.50,209.00 772.50,203.00 770.50,183.00 776.50,157.00 786.50,129.00 788.50,120.00 788.00,113.50 782.00,113.50 777.00,117.50 763.50,135.00 747.50,172.00 735.50,215.00 731.00,219.50 723.00,223.50 709.00,222.50 704.50,217.00 705.50,206.00 704.00,205.50 696.50,216.00 683.00,228.50 668.00,233.50 657.00,232.50 652.00,229.50 647.50,224.00 645.50,215.00 646.50,207.00 645.00,206.50 643.50,211.00 632.50,224.00 618.00,235.50 602.00,240.50 595.00,240.50 585.00,236.50 579.50,230.00 577.50,225.00 576.50,210.00 579.50,194.00 592.50,149.00 592.50,140.00 589.00,138.50 583.00,141.50 576.50,148.00 563.50,168.00 551.50,196.00 539.50,236.00 533.00,244.50 527.00,247.50 515.00,248.50 510.00,246.50 506.50,242.00 506.00,233.50 499.50,242.00 490.00,250.50 475.00,256.50 461.00,255.50 450.50,247.00 446.50,235.00 446.50,225.00 449.50,210.00 462.50,166.00 463.50,157.00 460.00,154.50 452.00,158.50 440.50,173.00 424.50,209.00 410.50,255.00 405.00,260.50 394.00,264.50 383.00,263.50 378.50,258.00 378.50,250.00 377.00,249.50 360.00,266.50 348.00,271.50 335.00,272.50 323.00,267.50 316.50,261.00 313.50,252.00 313.50,240.00 337.50,150.00 343.00,141.50 350.00,138.50 373.00,138.50 377.50,142.00 378.50,146.00 356.50,225.00 356.50,231.00 359.00,233.50 364.00,233.50 371.00,228.50 376.50,222.00 385.50,206.00 394.50,180.00 405.50,138.00 411.00,131.50 424.00,127.50 440.00,128.50 444.50,133.00 445.50,136.00 443.50,143.00 445.00,143.50 452.00,135.50 460.00,129.50 477.00,122.50 492.00,121.50 502.00,125.50 507.50,134.00 507.50,147.00 498.50,178.00 483.50,217.00 483.50,219.00 487.00,222.50 490.00,222.50 502.50,211.00 509.50,200.00 519.50,177.00 534.50,125.00 536.50,121.00 544.00,114.50 554.00,111.50 565.00,111.50 570.00,113.50 573.50,117.00 572.00,129.50 584.00,117.50 604.00,107.50 613.00,105.50 623.00,105.50 631.00,108.50 634.50,112.00 637.50,120.00 635.50,136.00 628.50,163.00 617.50,196.00 617.50,201.00 620.00,203.50 623.00,203.50 634.50,194.00 646.50,174.00 654.50,151.00 664.50,106.00 672.00,98.50 681.00,95.50 698.00,95.50 701.00,96.50 705.50,103.00 702.50,121.00 683.50,184.00 683.50,192.00 685.00,193.50 689.00,193.50 696.00,188.50 700.50,183.00 709.50,167.00 720.50,137.00 729.50,101.00 735.00,93.50 750.00,88.50 761.00,89.50 765.00,91.50 767.50,95.00 767.00,105.50 769.50,101.00 778.00,93.50 792.00,85.50 805.00,81.50 822.00,82.50 827.00,85.50 830.50,90.00 833.50,98.00 833.50,104.00 826.50,130.00 812.50,169.00 812.50,176.00 817.00,177.50 821.00,175.50 828.50,168.00 835.50,156.00 843.50,131.00 854.50,108.00 864.50,94.00 883.00,76.50 896.00,69.50 912.00,65.50 924.00,65.50 930.00,67.50 934.50,71.00 935.00,74.50 946.00,63.50 951.00,60.50 962.00,56.50 971.00,56.50 975.50,60.00 974.50,72.00 970.50,79.00 960.50,109.00 933.50,204.00 918.50,243.00 907.50,260.00 895.00,273.50 880.00,283.50 863.00,288.50 Z M 886.50,171.00 890.00,169.50 901.50,156.00 915.50,127.00 922.50,101.00 921.50,93.00 917.00,88.50 909.00,90.50 901.50,97.00 892.50,112.00 885.50,128.00 878.50,150.00 877.50,168.00 881.00,171.50 886.50,171.00 Z M 91.00,318.50 67.00,317.50 50.00,311.50 34.50,298.00 28.50,286.00 26.50,277.00 27.50,257.00 38.50,235.00 54.00,220.50 64.00,215.50 78.00,212.50 87.00,214.50 90.50,218.00 91.50,225.00 89.50,229.00 75.50,242.00 67.50,257.00 67.50,275.00 70.50,282.00 76.00,287.50 86.00,291.50 99.00,290.50 107.00,287.50 118.50,278.00 124.50,269.00 127.50,261.00 129.50,253.00 129.50,241.00 126.50,231.00 117.50,215.00 89.50,180.00 78.50,158.00 74.50,138.00 75.50,122.00 78.50,112.00 86.50,97.00 92.50,90.00 106.00,78.50 119.00,70.50 134.00,64.50 157.00,59.50 176.00,59.50 188.00,62.50 198.00,68.50 205.50,77.00 210.50,89.00 211.50,96.00 208.50,113.00 202.50,126.00 188.00,142.50 180.00,148.50 169.00,153.50 163.00,154.50 157.50,151.00 156.50,145.00 159.50,137.00 171.50,118.00 176.50,105.00 176.50,94.00 169.00,86.50 155.00,84.50 139.00,89.50 125.50,101.00 121.50,107.00 117.50,119.00 117.50,132.00 125.50,151.00 153.50,186.00 160.50,197.00 159.50,199.00 162.50,200.00 168.50,213.00 171.50,225.00 171.50,245.00 167.50,261.00 156.50,281.00 141.00,297.50 119.00,311.50 91.00,318.50 Z M 368.00,126.50 357.00,124.50 351.50,120.00 348.50,113.00 349.50,103.00 353.50,95.00 362.00,87.50 366.00,85.50 379.00,84.50 386.00,87.50 389.50,91.00 392.50,99.00 391.50,107.00 387.50,115.00 381.00,121.50 376.00,124.50 368.00,126.50 Z M 175.00,370.50 166.00,370.50 162.00,368.50 157.50,363.00 156.50,357.00 189.50,233.00 201.50,182.00 208.50,160.00 215.00,153.50 228.00,149.50 242.00,150.50 246.50,155.00 246.00,162.50 257.00,153.50 271.00,147.50 286.00,146.50 299.00,150.50 308.50,159.00 312.50,166.00 315.50,177.00 315.50,194.00 306.50,227.00 297.50,246.00 285.50,263.00 277.00,271.50 258.00,283.50 246.00,286.50 235.00,286.50 228.00,284.50 217.50,278.00 198.50,351.00 189.00,363.50 175.00,370.50 Z M 238.50,259.00 245.00,256.50 252.50,249.00 259.50,238.00 268.50,217.00 273.50,196.00 274.50,185.00 271.50,178.00 268.00,175.50 264.00,175.50 257.00,178.50 249.50,186.00 241.50,199.00 231.50,222.00 224.50,249.00 225.50,254.00 230.00,258.50 238.50,259.00 Z M 402.00,508.50 389.00,508.50 384.00,506.50 379.50,501.00 379.50,497.00 439.50,313.00 423.00,313.50 396.00,318.50 377.00,326.50 364.50,338.00 359.50,348.00 360.50,361.00 366.00,367.50 380.00,371.50 382.50,374.00 382.50,380.00 374.00,390.50 358.00,396.50 345.00,395.50 335.00,391.50 325.50,384.00 318.50,373.00 315.50,361.00 315.50,351.00 319.50,336.00 327.50,322.00 338.00,310.50 354.00,299.50 376.00,290.50 388.00,287.50 443.00,279.50 540.00,273.50 558.00,269.50 573.00,261.50 576.00,261.50 579.50,266.00 579.50,277.00 577.50,285.00 572.50,294.00 558.00,306.50 549.00,310.50 535.00,313.50 479.00,313.50 477.50,315.00 424.50,496.00 422.50,500.00 417.00,504.50 402.00,508.50 Z M 570.00,542.50 560.00,542.50 555.00,540.50 551.50,536.00 551.50,530.00 592.50,389.00 580.00,398.50 572.50,402.00 569.50,420.00 562.50,440.00 554.50,455.00 543.50,469.00 530.00,479.50 520.00,484.50 508.00,487.50 494.00,487.50 485.00,485.50 471.00,476.50 463.50,467.00 458.50,453.00 457.50,433.00 459.50,421.00 464.50,405.00 473.50,387.00 483.50,373.00 495.00,361.50 507.00,353.50 523.00,347.50 542.00,346.50 551.00,348.50 562.00,354.50 567.50,360.00 571.50,367.00 573.50,375.00 572.50,382.00 574.00,383.50 583.00,378.50 591.50,370.00 595.50,365.00 608.50,339.00 613.00,334.50 615.00,335.50 614.50,333.00 616.00,331.50 622.00,328.50 631.00,326.50 637.00,327.50 641.50,331.00 642.50,337.00 644.00,337.50 654.00,328.50 671.00,322.50 686.00,323.50 695.00,327.50 704.50,337.00 707.50,343.00 710.50,355.00 710.50,369.00 704.50,397.00 692.50,424.00 683.50,437.00 670.00,450.50 654.00,459.50 639.00,462.50 631.00,461.50 615.00,453.50 591.50,534.00 584.00,539.50 570.00,542.50 Z M 636.50,434.00 644.00,430.50 651.50,422.00 666.50,390.00 670.50,374.00 670.50,359.00 667.00,353.50 662.00,351.50 654.00,353.50 646.50,361.00 635.50,381.00 628.50,400.00 623.50,418.00 623.50,429.00 628.00,433.50 636.50,434.00 Z M 543.50,391.00 546.00,390.50 548.50,387.00 548.50,378.00 543.00,370.50 536.00,369.50 532.00,371.50 529.50,375.00 529.50,384.00 535.00,389.50 543.50,391.00 Z M 514.50,450.00 521.00,446.50 527.50,440.00 533.50,431.00 541.50,410.00 543.50,408.00 526.00,403.50 517.50,396.00 514.00,388.50 503.50,408.00 499.50,419.00 497.50,427.00 497.50,443.00 500.50,448.00 504.00,450.50 514.50,450.00 Z M 625.00,521.50 616.00,521.50 612.50,518.00 612.50,503.00 615.50,492.00 621.00,485.50 635.00,481.50 681.00,477.50 758.00,477.50 790.00,483.50 794.00,485.50 801.50,494.00 800.50,503.00 797.00,507.50 792.00,510.50 704.00,511.50 645.00,517.50 625.00,521.50 Z M 280.00,630.50 268.00,628.50 255.00,619.50 246.50,606.00 246.50,598.00 253.00,588.50 281.00,572.50 344.00,546.50 421.00,523.50 472.00,511.50 528.00,501.50 540.00,500.50 545.50,504.00 546.50,518.00 544.50,533.00 542.50,537.00 536.00,541.50 477.00,554.50 407.00,575.50 353.00,596.50 314.00,614.50 289.00,628.50 280.00,630.50 Z"/>
  </g>
</svg>
